<?xml version="1.0" encoding="UTF-8" standalone="no"?>
<!DOCTYPE svg PUBLIC "-//W3C//DTD SVG 1.1//EN" "http://www.w3.org/Graphics/SVG/1.1/DTD/svg11.dtd">
<svg width="100%" height="100%" viewBox="0 0 128 128" version="1.1" xmlns="http://www.w3.org/2000/svg" xmlns:xlink="http://www.w3.org/1999/xlink" xml:space="preserve" xmlns:serif="http://www.serif.com/" style="fill-rule:evenodd;clip-rule:evenodd;stroke-linejoin:round;stroke-miterlimit:2;">
    <g id="_2" serif:id="2">
        <circle cx="64" cy="64" r="58.795" style="fill:rgb(238,53,46);"/>
        <path d="M70.066,46.924c-1.362,-1.628 -3.31,-2.443 -5.846,-2.443c-3.47,0 -5.832,1.295 -7.087,3.884c-0.72,1.495 -1.147,3.87 -1.281,7.127l-11.09,-0c0.187,-4.938 1.081,-8.929 2.682,-11.971c3.043,-5.793 8.448,-8.689 16.216,-8.689c6.139,0 11.024,1.702 14.654,5.105c3.63,3.403 5.445,7.908 5.445,13.513c-0,4.297 -1.281,8.114 -3.844,11.451c-1.681,2.215 -4.444,4.684 -8.288,7.407l-4.564,3.243c-2.856,2.029 -4.811,3.497 -5.866,4.404c-1.054,0.908 -1.942,1.962 -2.662,3.163l25.344,0l-0,10.05l-39.758,-0c0.107,-4.164 1.001,-7.968 2.683,-11.411c1.628,-3.87 5.472,-7.968 11.531,-12.292c5.258,-3.763 8.661,-6.459 10.209,-8.087c2.376,-2.536 3.564,-5.312 3.564,-8.328c-0,-2.456 -0.681,-4.498 -2.042,-6.126Z" style="fill:rgb(235,235,235);fill-rule:nonzero;"/>
    </g>
</svg>
