<?xml version="1.0" encoding="UTF-8" standalone="no"?>
<!DOCTYPE svg PUBLIC "-//W3C//DTD SVG 1.1//EN" "http://www.w3.org/Graphics/SVG/1.1/DTD/svg11.dtd">
<svg width="100%" height="100%" viewBox="0 0 128 128" version="1.1" xmlns="http://www.w3.org/2000/svg" xmlns:xlink="http://www.w3.org/1999/xlink" xml:space="preserve" xmlns:serif="http://www.serif.com/" style="fill-rule:evenodd;clip-rule:evenodd;stroke-linejoin:round;stroke-miterlimit:2;">
    <g id="_3" serif:id="3">
        <circle cx="64" cy="64" r="58.795" style="fill:rgb(238,53,46);"/>
        <path d="M57.454,45.963c-1.281,1.708 -1.895,3.99 -1.842,6.846l-10.65,0c0.107,-2.882 0.6,-5.618 1.481,-8.207c0.935,-2.269 2.403,-4.365 4.404,-6.286c1.495,-1.362 3.27,-2.403 5.326,-3.123c2.055,-0.721 4.577,-1.081 7.567,-1.081c5.552,-0 10.029,1.434 13.433,4.304c3.403,2.869 5.104,6.719 5.104,11.551c0,3.416 -1.014,6.299 -3.043,8.648c-1.281,1.468 -2.615,2.469 -4.003,3.003c1.041,-0 2.535,0.894 4.484,2.682c2.909,2.696 4.364,6.38 4.364,11.051c0,4.911 -1.702,9.229 -5.105,12.952c-3.403,3.724 -8.441,5.585 -15.114,5.585c-8.221,0 -13.933,-2.682 -17.136,-8.047c-1.682,-2.856 -2.616,-6.593 -2.803,-11.211l11.211,0c-0,2.322 0.373,4.244 1.121,5.766c1.388,2.802 3.91,4.204 7.567,4.204c2.242,-0 4.197,-0.768 5.865,-2.303c1.669,-1.534 2.503,-3.743 2.503,-6.626c-0,-3.817 -1.548,-6.366 -4.645,-7.647c-1.761,-0.721 -4.537,-1.081 -8.328,-1.081l0,-8.168c3.711,-0.053 6.3,-0.414 7.768,-1.081c2.536,-1.121 3.803,-3.39 3.803,-6.806c0,-2.216 -0.647,-4.018 -1.941,-5.406c-1.295,-1.388 -3.117,-2.082 -5.466,-2.082c-2.695,0 -4.671,0.855 -5.925,2.563Z" style="fill:rgb(235,235,235);fill-rule:nonzero;"/>
    </g>
</svg>
