<?xml version="1.0" encoding="UTF-8" standalone="no"?>
<!DOCTYPE svg PUBLIC "-//W3C//DTD SVG 1.1//EN" "http://www.w3.org/Graphics/SVG/1.1/DTD/svg11.dtd">
<svg width="100%" height="100%" viewBox="0 0 128 128" version="1.1" xmlns="http://www.w3.org/2000/svg" xmlns:xlink="http://www.w3.org/1999/xlink" xml:space="preserve" xmlns:serif="http://www.serif.com/" style="fill-rule:evenodd;clip-rule:evenodd;stroke-linejoin:round;stroke-miterlimit:2;">
    <g id="_5" serif:id="5">
        <circle cx="64" cy="64" r="58.795" style="fill:rgb(0,147,60);"/>
        <path d="M63.62,63.059c-1.388,0 -2.589,0.174 -3.604,0.521c-1.788,0.64 -3.136,1.828 -4.044,3.563l-10.249,-0.48l4.083,-32.071l31.991,0l-0,9.689l-23.743,0l-2.082,12.692c1.762,-1.147 3.137,-1.908 4.124,-2.282c1.655,-0.614 3.67,-0.921 6.046,-0.921c4.805,0 8.995,1.615 12.572,4.845c3.577,3.23 5.365,7.927 5.365,14.093c0,5.365 -1.722,10.157 -5.165,14.374c-3.443,4.217 -8.595,6.326 -15.455,6.326c-5.525,-0 -10.062,-1.481 -13.612,-4.444c-3.551,-2.963 -5.526,-7.167 -5.926,-12.612l11.371,-0c0.453,2.482 1.321,4.397 2.602,5.745c1.281,1.348 3.15,2.022 5.606,2.022c2.829,0 4.984,-0.994 6.466,-2.983c1.481,-1.988 2.222,-4.491 2.222,-7.507c-0,-2.963 -0.694,-5.465 -2.082,-7.507c-1.388,-2.042 -3.55,-3.063 -6.486,-3.063Z" style="fill:rgb(235,235,235);fill-rule:nonzero;"/>
    </g>
</svg>
