<?xml version="1.0" encoding="UTF-8" standalone="no"?>
<!DOCTYPE svg PUBLIC "-//W3C//DTD SVG 1.1//EN" "http://www.w3.org/Graphics/SVG/1.1/DTD/svg11.dtd">
<svg width="100%" height="100%" viewBox="0 0 128 128" version="1.1" xmlns="http://www.w3.org/2000/svg" xmlns:xlink="http://www.w3.org/1999/xlink" xml:space="preserve" xmlns:serif="http://www.serif.com/" style="fill-rule:evenodd;clip-rule:evenodd;stroke-linejoin:round;stroke-miterlimit:2;">
    <g id="_6" serif:id="6">
        <circle cx="64" cy="64" r="58.795" style="fill:rgb(0,147,60);"/>
        <path d="M66.442,54.871c5.152,0 9.376,1.749 12.672,5.245c3.297,3.497 4.945,7.968 4.945,13.413c0,5.419 -1.615,10.196 -4.845,14.334c-3.229,4.137 -8.247,6.206 -15.054,6.206c-7.313,-0 -12.705,-3.057 -16.175,-9.169c-2.696,-4.778 -4.044,-10.944 -4.044,-18.498c-0,-4.431 0.187,-8.034 0.56,-10.81c0.668,-4.938 1.962,-9.049 3.884,-12.332c1.655,-2.802 3.824,-5.058 6.506,-6.766c2.683,-1.708 5.893,-2.563 9.629,-2.563c5.392,0 9.69,1.382 12.893,4.144c3.203,2.763 5.005,6.44 5.405,11.031l-11.371,-0c0,-0.934 -0.36,-1.962 -1.081,-3.083c-1.228,-1.815 -3.083,-2.723 -5.565,-2.723c-3.71,0 -6.353,2.082 -7.928,6.246c-0.854,2.296 -1.441,5.686 -1.761,10.17c1.414,-1.682 3.056,-2.91 4.924,-3.684c1.869,-0.774 4.004,-1.161 6.406,-1.161Zm-7.687,10.891c-2.242,1.735 -3.363,4.537 -3.363,8.408c-0,3.123 0.841,5.672 2.522,7.647c1.682,1.975 3.817,2.963 6.406,2.963c2.536,-0 4.531,-0.954 5.986,-2.863c1.455,-1.908 2.182,-4.384 2.182,-7.427c0,-3.39 -0.827,-5.986 -2.482,-7.787c-1.655,-1.802 -3.684,-2.703 -6.086,-2.703c-1.949,0 -3.67,0.587 -5.165,1.762Z" style="fill:rgb(235,235,235);fill-rule:nonzero;"/>
    </g>
</svg>
