<?xml version="1.0" encoding="UTF-8" standalone="no"?>
<!DOCTYPE svg PUBLIC "-//W3C//DTD SVG 1.1//EN" "http://www.w3.org/Graphics/SVG/1.1/DTD/svg11.dtd">
<svg width="100%" height="100%" viewBox="0 0 128 128" version="1.1" xmlns="http://www.w3.org/2000/svg" xmlns:xlink="http://www.w3.org/1999/xlink" xml:space="preserve" xmlns:serif="http://www.serif.com/" style="fill-rule:evenodd;clip-rule:evenodd;stroke-linejoin:round;stroke-miterlimit:2;">
    <g id="B">
        <circle cx="64" cy="64" r="58.795" style="fill:rgb(255,99,25);"/>
        <path d="M69.037,93.508l-26.745,0l-0,-59.016l28.667,-0c7.234,0.107 12.359,2.202 15.375,6.286c1.815,2.509 2.722,5.512 2.722,9.008c0,3.604 -0.907,6.5 -2.722,8.689c-1.014,1.228 -2.509,2.349 -4.484,3.363c3.016,1.094 5.291,2.829 6.826,5.205c1.535,2.375 2.302,5.258 2.302,8.648c0,3.497 -0.881,6.633 -2.642,9.409c-1.121,1.842 -2.523,3.39 -4.204,4.644c-1.895,1.442 -4.131,2.429 -6.707,2.963c-2.575,0.534 -5.371,0.801 -8.388,0.801Zm-0.28,-25.985l-14.694,0l0,15.735l14.494,0c2.589,0 4.604,-0.347 6.046,-1.041c2.616,-1.281 3.923,-3.737 3.923,-7.367c0,-3.069 -1.267,-5.178 -3.803,-6.326c-1.415,-0.64 -3.403,-0.974 -5.966,-1.001Zm6.126,-11.25c1.602,-0.961 2.402,-2.683 2.402,-5.165c0,-2.75 -1.067,-4.565 -3.203,-5.445c-1.842,-0.614 -4.19,-0.921 -7.046,-0.921l-12.973,-0l0,13.012l14.494,0c2.589,0 4.698,-0.494 6.326,-1.481Z" style="fill:rgb(235,235,235);fill-rule:nonzero;"/>
    </g>
</svg>
