<?xml version="1.0" encoding="UTF-8" standalone="no"?>
<!DOCTYPE svg PUBLIC "-//W3C//DTD SVG 1.1//EN" "http://www.w3.org/Graphics/SVG/1.1/DTD/svg11.dtd">
<svg width="100%" height="100%" viewBox="0 0 128 128" version="1.1" xmlns="http://www.w3.org/2000/svg" xmlns:xlink="http://www.w3.org/1999/xlink" xml:space="preserve" xmlns:serif="http://www.serif.com/" style="fill-rule:evenodd;clip-rule:evenodd;stroke-linejoin:round;stroke-miterlimit:2;">
    <g id="C">
        <circle cx="64" cy="64" r="58.795" style="fill:rgb(0,57,166);"/>
        <path d="M81.957,88.844c-4.404,4.03 -10.036,6.045 -16.896,6.045c-8.488,0 -15.161,-2.722 -20.019,-8.167c-4.858,-5.472 -7.287,-12.973 -7.287,-22.502c0,-10.303 2.763,-18.244 8.288,-23.822c4.804,-4.858 10.917,-7.287 18.337,-7.287c9.93,-0 17.19,3.256 21.781,9.769c2.536,3.657 3.897,7.327 4.084,11.01l-12.332,0c-0.801,-2.829 -1.828,-4.964 -3.083,-6.406c-2.242,-2.562 -5.565,-3.843 -9.969,-3.843c-4.484,-0 -8.021,1.808 -10.61,5.425c-2.589,3.617 -3.884,8.735 -3.884,15.354c0,6.62 1.368,11.578 4.104,14.875c2.736,3.296 6.213,4.944 10.43,4.944c4.324,0 7.62,-1.414 9.889,-4.244c1.255,-1.521 2.296,-3.803 3.123,-6.846l12.212,-0c-1.068,6.432 -3.79,11.664 -8.168,15.695Z" style="fill:rgb(235,235,235);fill-rule:nonzero;"/>
    </g>
</svg>
