<?xml version="1.0" encoding="UTF-8" standalone="no"?>
<!DOCTYPE svg PUBLIC "-//W3C//DTD SVG 1.1//EN" "http://www.w3.org/Graphics/SVG/1.1/DTD/svg11.dtd">
<svg width="100%" height="100%" viewBox="0 0 128 128" version="1.1" xmlns="http://www.w3.org/2000/svg" xmlns:xlink="http://www.w3.org/1999/xlink" xml:space="preserve" xmlns:serif="http://www.serif.com/" style="fill-rule:evenodd;clip-rule:evenodd;stroke-linejoin:round;stroke-miterlimit:2;">
    <g id="G">
        <circle cx="64" cy="64" r="58.795" style="fill:rgb(108,190,69);"/>
        <path id="G1" serif:id="G" d="M73.874,92.047c-3.256,2.002 -7.26,3.003 -12.011,3.003c-7.821,-0 -14.227,-2.71 -19.219,-8.128c-5.205,-5.445 -7.807,-12.892 -7.807,-22.341c-0,-9.556 2.629,-17.217 7.887,-22.982c5.259,-5.766 12.212,-8.649 20.86,-8.649c7.501,0 13.526,1.902 18.077,5.706c4.551,3.804 7.161,8.548 7.828,14.233l-12.132,0c-0.934,-4.03 -3.216,-6.846 -6.846,-8.448c-2.029,-0.88 -4.284,-1.321 -6.767,-1.321c-4.751,0 -8.655,1.795 -11.711,5.385c-3.056,3.59 -4.584,8.989 -4.584,16.196c-0,7.26 1.655,12.398 4.965,15.414c3.309,3.017 7.073,4.525 11.29,4.525c4.138,-0 7.527,-1.195 10.17,-3.584c2.643,-2.389 4.271,-5.518 4.885,-9.389l-13.653,0l-0,-9.849l24.583,-0l0,31.67l-8.168,0l-1.241,-7.367c-2.375,2.803 -4.511,4.778 -6.406,5.926Z" style="fill:rgb(235,235,235);fill-rule:nonzero;"/>
    </g>
</svg>
