<?xml version="1.0" encoding="UTF-8" standalone="no"?>
<!DOCTYPE svg PUBLIC "-//W3C//DTD SVG 1.1//EN" "http://www.w3.org/Graphics/SVG/1.1/DTD/svg11.dtd">
<svg width="100%" height="100%" viewBox="0 0 128 128" version="1.1" xmlns="http://www.w3.org/2000/svg" xmlns:xlink="http://www.w3.org/1999/xlink" xml:space="preserve" xmlns:serif="http://www.serif.com/" style="fill-rule:evenodd;clip-rule:evenodd;stroke-linejoin:round;stroke-miterlimit:2;">
    <g id="J">
        <circle cx="64" cy="64" r="58.795" style="fill:rgb(153,102,51);"/>
        <path id="J1" serif:id="J" d="M67.976,75.051l0,-41.28l12.332,0l-0,41.079c-0,5.018 -0.868,8.996 -2.603,11.932c-2.936,4.964 -8.234,7.447 -15.895,7.447c-7.66,-0 -12.799,-2.009 -15.414,-6.026c-2.616,-4.017 -3.924,-9.496 -3.924,-16.436l-0,-1.361l11.651,0l-0,1.361c0.107,4.565 0.607,7.774 1.501,9.63c0.895,1.855 2.81,2.782 5.746,2.782c2.909,0 4.831,-1.014 5.765,-3.043c0.561,-1.201 0.841,-3.229 0.841,-6.085Z" style="fill:white;fill-rule:nonzero;"/>
    </g>
</svg>
