<?xml version="1.0" encoding="UTF-8" standalone="no"?>
<!DOCTYPE svg PUBLIC "-//W3C//DTD SVG 1.1//EN" "http://www.w3.org/Graphics/SVG/1.1/DTD/svg11.dtd">
<svg width="100%" height="100%" viewBox="0 0 128 128" version="1.1" xmlns="http://www.w3.org/2000/svg" xmlns:xlink="http://www.w3.org/1999/xlink" xml:space="preserve" xmlns:serif="http://www.serif.com/" style="fill-rule:evenodd;clip-rule:evenodd;stroke-linejoin:round;stroke-miterlimit:2;">
    <g id="Q">
        <circle cx="64" cy="64" r="58.795" style="fill:rgb(252,204,10);"/>
        <path id="Q1" serif:id="Q" d="M73.249,92.587c-2.643,0.881 -5.806,1.321 -9.489,1.321c-7.688,0 -14.04,-2.295 -19.058,-6.886c-6.086,-5.525 -9.129,-13.64 -9.129,-24.343c-0,-10.784 3.123,-18.938 9.369,-24.464c5.098,-4.51 11.437,-6.766 19.018,-6.766c7.634,0 14.04,2.389 19.218,7.167c5.979,5.525 8.969,13.252 8.969,23.182c-0,5.258 -0.641,9.662 -1.922,13.212c-1.041,3.39 -2.576,6.206 -4.604,8.449l6.806,6.366l-6.446,6.726l-7.127,-6.726c-2.162,1.307 -4.03,2.228 -5.605,2.762Zm-2.643,-10.65l-5.965,-5.685l6.366,-6.647l5.965,5.686c0.935,-1.922 1.589,-3.604 1.962,-5.045c0.587,-2.162 0.881,-4.685 0.881,-7.567c0,-6.62 -1.355,-11.738 -4.064,-15.355c-2.709,-3.617 -6.666,-5.425 -11.871,-5.425c-4.885,-0 -8.782,1.735 -11.691,5.205c-2.91,3.47 -4.364,8.661 -4.364,15.575c-0,8.087 2.082,13.88 6.246,17.376c2.695,2.269 5.925,3.404 9.689,3.404c1.414,-0 2.776,-0.174 4.084,-0.521c0.72,-0.187 1.641,-0.52 2.762,-1.001Z" style="fill-rule:nonzero;"/>
    </g>
</svg>
