<?xml version="1.0" encoding="UTF-8" standalone="no"?>
<!DOCTYPE svg PUBLIC "-//W3C//DTD SVG 1.1//EN" "http://www.w3.org/Graphics/SVG/1.1/DTD/svg11.dtd">
<svg width="100%" height="100%" viewBox="0 0 128 128" version="1.1" xmlns="http://www.w3.org/2000/svg" xmlns:xlink="http://www.w3.org/1999/xlink" xml:space="preserve" xmlns:serif="http://www.serif.com/" style="fill-rule:evenodd;clip-rule:evenodd;stroke-linejoin:round;stroke-miterlimit:2;">
    <g id="R">
        <circle cx="64" cy="64" r="58.795" style="fill:rgb(252,204,10);"/>
        <path id="R1" serif:id="R" d="M66.292,70.366l-12.732,0l0,23.142l-12.051,0l-0,-59.016l28.947,-0c4.137,0.08 7.32,0.587 9.549,1.521c2.229,0.935 4.117,2.309 5.666,4.124c1.281,1.495 2.295,3.15 3.043,4.965c0.747,1.815 1.121,3.884 1.121,6.206c-0,2.803 -0.708,5.559 -2.122,8.268c-1.415,2.709 -3.751,4.624 -7.007,5.745c2.722,1.095 4.651,2.649 5.785,4.665c1.135,2.015 1.702,5.091 1.702,9.228l0,3.964c0,2.696 0.107,4.525 0.32,5.485c0.321,1.522 1.068,2.643 2.242,3.364l0,1.481l-13.572,0c-0.374,-1.308 -0.641,-2.362 -0.801,-3.163c-0.321,-1.655 -0.494,-3.35 -0.521,-5.085l-0.08,-5.485c-0.053,-3.764 -0.74,-6.273 -2.062,-7.527c-1.321,-1.255 -3.797,-1.882 -7.427,-1.882Zm7.487,-10.73c2.456,-1.121 3.684,-3.337 3.684,-6.646c-0,-3.577 -1.188,-5.98 -3.564,-7.207c-1.334,-0.694 -3.336,-1.041 -6.005,-1.041l-14.334,-0l0,15.855l13.973,-0c2.776,-0 4.858,-0.321 6.246,-0.961Z" style="fill-rule:nonzero;"/>
    </g>
</svg>
