<?xml version="1.0" encoding="UTF-8" standalone="no"?>
<!DOCTYPE svg PUBLIC "-//W3C//DTD SVG 1.1//EN" "http://www.w3.org/Graphics/SVG/1.1/DTD/svg11.dtd">
<svg width="100%" height="100%" viewBox="0 0 128 128" version="1.1" xmlns="http://www.w3.org/2000/svg" xmlns:xlink="http://www.w3.org/1999/xlink" xml:space="preserve" xmlns:serif="http://www.serif.com/" style="fill-rule:evenodd;clip-rule:evenodd;stroke-linejoin:round;stroke-miterlimit:2;">
    <g id="S">
        <circle cx="64" cy="64" r="58.795" style="fill:rgb(128,129,131);"/>
        <path id="S1" serif:id="S" d="M64.06,85.08c2.909,0 5.272,-0.32 7.087,-0.961c3.443,-1.228 5.165,-3.51 5.165,-6.846c-0,-1.949 -0.854,-3.457 -2.563,-4.525c-1.708,-1.041 -4.391,-1.962 -8.047,-2.762l-6.246,-1.402c-6.14,-1.388 -10.384,-2.896 -12.732,-4.524c-3.978,-2.723 -5.966,-6.98 -5.966,-12.772c-0,-5.285 1.922,-9.676 5.765,-13.173c3.844,-3.496 9.489,-5.245 16.936,-5.245c6.22,0 11.525,1.649 15.916,4.945c4.39,3.297 6.693,8.081 6.906,14.354l-11.851,-0c-0.214,-3.55 -1.762,-6.073 -4.644,-7.567c-1.922,-0.988 -4.311,-1.482 -7.167,-1.482c-3.177,0 -5.712,0.641 -7.608,1.922c-1.895,1.281 -2.842,3.07 -2.842,5.365c-0,2.109 0.934,3.684 2.802,4.725c1.202,0.694 3.764,1.508 7.688,2.442l10.169,2.442c4.458,1.068 7.821,2.496 10.09,4.284c3.523,2.776 5.285,6.793 5.285,12.052c0,5.392 -2.062,9.869 -6.186,13.433c-4.124,3.563 -9.949,5.345 -17.476,5.345c-7.688,-0 -13.734,-1.755 -18.138,-5.265c-4.404,-3.51 -6.606,-8.335 -6.606,-14.474l11.771,-0c0.374,2.696 1.108,4.711 2.202,6.046c2.002,2.429 5.432,3.643 10.29,3.643Z" style="fill:white;fill-rule:nonzero;"/>
    </g>
</svg>
