<?xml version="1.0" encoding="UTF-8" standalone="no"?>
<!DOCTYPE svg PUBLIC "-//W3C//DTD SVG 1.1//EN" "http://www.w3.org/Graphics/SVG/1.1/DTD/svg11.dtd">
<svg width="100%" height="100%" viewBox="0 0 128 128" version="1.1" xmlns="http://www.w3.org/2000/svg" xmlns:xlink="http://www.w3.org/1999/xlink" xml:space="preserve" xmlns:serif="http://www.serif.com/" style="fill-rule:evenodd;clip-rule:evenodd;stroke-linejoin:round;stroke-miterlimit:2;">
    <g transform="matrix(0.5,0,0,0.5,0,0)">
        <g id="S">
            <g transform="matrix(1,0,0,1,-74.7517,-46.8229)">
                <circle cx="202.752" cy="174.823" r="117.59" style="fill:rgb(128,129,131);"/>
            </g>
            <g id="S1" serif:id="S" transform="matrix(0.821448,0,0,0.821448,17.5252,2.9739)">
                <path d="M134.634,203.526C141.718,203.526 147.469,202.746 151.888,201.187C160.272,198.197 164.463,192.641 164.463,184.517C164.463,179.773 162.384,176.101 158.225,173.502C154.065,170.967 147.534,168.725 138.631,166.776L123.424,163.364C108.476,159.984 98.143,156.313 92.424,152.348C82.741,145.72 77.9,135.354 77.9,121.252C77.9,108.384 82.579,97.694 91.937,89.18C101.295,80.667 115.04,76.41 133.172,76.41C148.314,76.41 161.23,80.423 171.921,88.449C182.611,96.475 188.217,108.124 188.736,123.396L159.882,123.396C159.362,114.753 155.593,108.611 148.574,104.972C143.895,102.568 138.078,101.365 131.125,101.365C123.391,101.365 117.217,102.925 112.603,106.044C107.989,109.164 105.682,113.518 105.682,119.107C105.682,124.241 107.957,128.075 112.506,130.61C115.43,132.3 121.669,134.282 131.222,136.556L155.983,142.503C166.836,145.102 175.024,148.579 180.548,152.933C189.126,159.692 193.416,169.473 193.416,182.275C193.416,195.403 188.395,206.304 178.355,214.98C168.314,223.656 154.13,227.994 135.804,227.994C117.087,227.994 102.368,223.721 91.645,215.175C80.922,206.629 75.56,194.883 75.56,179.936L104.22,179.936C105.13,186.499 106.917,191.406 109.581,194.655C114.455,200.569 122.806,203.526 134.634,203.526Z" style="fill:white;fill-rule:nonzero;"/>
            </g>
        </g>
        <g id="SIR">
            <g transform="matrix(1,0,0,1,-74.7517,-46.8229)">
                <circle cx="202.752" cy="174.823" r="117.59" style="fill:rgb(8,23,156);"/>
            </g>
            <g transform="matrix(0.562667,0,0,0.562667,-3.45408,42.3609)">
                <path d="M134.634,203.526C141.718,203.526 147.469,202.746 151.888,201.187C160.272,198.197 164.463,192.641 164.463,184.517C164.463,179.773 162.384,176.101 158.225,173.502C154.065,170.967 147.534,168.725 138.631,166.776L123.424,163.364C108.476,159.984 98.143,156.313 92.424,152.348C82.741,145.72 77.9,135.354 77.9,121.252C77.9,108.384 82.579,97.694 91.937,89.18C101.295,80.667 115.04,76.41 133.172,76.41C148.314,76.41 161.23,80.423 171.921,88.449C182.611,96.475 188.217,108.124 188.736,123.396L159.882,123.396C159.362,114.753 155.593,108.611 148.574,104.972C143.895,102.568 138.078,101.365 131.125,101.365C123.391,101.365 117.217,102.925 112.603,106.044C107.989,109.164 105.682,113.518 105.682,119.107C105.682,124.241 107.957,128.075 112.506,130.61C115.43,132.3 121.669,134.282 131.222,136.556L155.983,142.503C166.836,145.102 175.024,148.579 180.548,152.933C189.126,159.692 193.416,169.473 193.416,182.275C193.416,195.403 188.395,206.304 178.355,214.98C168.314,223.656 154.13,227.994 135.804,227.994C117.087,227.994 102.368,223.721 91.645,215.175C80.922,206.629 75.56,194.883 75.56,179.936L104.22,179.936C105.13,186.499 106.917,191.406 109.581,194.655C114.455,200.569 122.806,203.526 134.634,203.526Z" style="fill:rgb(235,235,235);fill-rule:nonzero;"/>
                <rect x="213.302" y="80.602" width="29.829" height="143.688" style="fill:rgb(235,235,235);fill-rule:nonzero;"/>
                <path d="M332.132,167.945L301.133,167.945L301.133,224.29L271.791,224.29L271.791,80.602L342.27,80.602C352.343,80.797 360.093,82.031 365.52,84.306C370.946,86.581 375.544,89.927 379.313,94.347C382.433,97.986 384.902,102.015 386.722,106.434C388.542,110.854 389.451,115.89 389.451,121.544C389.451,128.368 387.729,135.078 384.285,141.674C380.84,148.27 375.154,152.933 367.226,155.663C373.854,158.327 378.55,162.113 381.312,167.019C384.074,171.926 385.455,179.416 385.455,189.489L385.455,199.14C385.455,205.703 385.715,210.155 386.234,212.495C387.014,216.199 388.834,218.928 391.693,220.683L391.693,224.29L358.647,224.29C357.737,221.105 357.087,218.538 356.697,216.589C355.918,212.56 355.495,208.433 355.43,204.209L355.235,190.854C355.105,181.69 353.432,175.581 350.215,172.527C346.998,169.473 340.97,167.945 332.132,167.945ZM350.361,141.82C356.34,139.091 359.33,133.697 359.33,125.638C359.33,116.93 356.438,111.081 350.654,108.092C347.404,106.402 342.53,105.557 336.031,105.557L301.133,105.557L301.133,144.16L335.154,144.16C341.913,144.16 346.982,143.38 350.361,141.82Z" style="fill:rgb(235,235,235);fill-rule:nonzero;"/>
            </g>
        </g>
    </g>
</svg>
